<svg width="244" height="83" viewBox="0 0 244 83" fill="none" xmlns="http://www.w3.org/2000/svg">
<path d="M126.231 0.787685C159.769 -0.953826 189.6 2.0455 210.718 8.2944C221.278 11.4193 229.643 15.3525 235.204 19.8987C240.767 24.4471 243.489 29.5783 242.863 35.0971C242.237 40.6159 238.312 46.0922 231.645 51.2757C224.981 56.4567 215.619 61.3095 204.221 65.5746C181.428 74.1037 150.558 80.255 117.021 81.9965C83.4832 83.738 53.6524 80.7386 32.5353 74.4898C21.9753 71.3649 13.6098 67.4326 8.04891 62.8864C2.48544 58.3381 -0.236041 53.2068 0.3898 47.688C1.01573 42.1692 4.94037 36.6929 11.6076 31.5094C18.2718 26.3284 27.6337 21.4747 39.0319 17.2095C61.825 8.68057 92.6938 2.52922 126.231 0.787685Z" stroke="#E9E9DB" stroke-width="0.6"/>
</svg>
